<svg width="1209" height="718" viewBox="0 0 1209 718" fill="none" xmlns="http://www.w3.org/2000/svg">
<path d="M0 493H88.2991V361.427H198.295V286.951H88.2991V212.476H221V138H0V493Z" fill="#C62F2D"/>
<path d="M100.168 440.573H198.832V376H100.168V440.573ZM99 718H200V471.664H99V718Z" fill="#C62F2D"/>
<path d="M221 718H303.864V558.719C303.864 537.194 300.076 500.364 300.076 500.364H301.023C301.023 500.364 316.175 536.238 329.434 558.719L423.662 718H507V376H424.136V535.759C424.136 557.284 427.924 594.115 427.924 594.115H426.977C426.977 594.115 411.825 558.241 398.566 535.759L304.811 376H221V718Z" fill="#C62F2D"/>
<path d="M221 297.462C221 334.614 262.198 363 321.309 363C356.537 363 392.361 351.729 412.662 331.692H413.856C413.856 331.692 412.662 337.954 412.662 345.05V357.991H507V225.662C507 170.978 454.457 138 369.672 138C319.518 138 265.781 151.776 239.509 165.968L275.334 216.896C299.814 205.625 330.265 196.442 360.119 196.442C382.808 196.442 403.706 202.286 403.706 220.236V223.993H394.749C318.921 223.993 221 239.855 221 297.462ZM323.1 290.783C323.1 271.163 363.701 265.319 395.347 265.319H404.9V271.163C404.9 288.696 382.211 309.15 352.357 309.15C333.251 309.15 323.1 300.801 323.1 290.783Z" fill="#C62F2D"/>
<path d="M528 718H912V596.322H671.897V138H528V718Z" fill="#C62F2D"/>
<path d="M699 580H1084V458.322H843.272V0H699V580Z" fill="#C62F2D"/>
<path d="M925.195 379.079L893.404 433.557C893.404 433.557 923.461 449 962.766 449C1010.16 449 1062.18 431.841 1087.04 382.51L1209 138H1099.76L1062.18 240.952C1058.14 252.963 1052.36 273.982 1052.36 273.982H1051.2C1051.2 273.982 1045.42 251.676 1040.22 239.665L996.291 138H883L1009.59 354.628L1003.8 364.923C993.401 383.797 972.014 387.229 955.83 387.229C941.379 387.229 925.195 379.079 925.195 379.079Z" fill="#C62F2D"/>
</svg>
