<svg width="706" height="339" viewBox="0 0 706 339" fill="none" xmlns="http://www.w3.org/2000/svg">
<path d="M0.214844 243.78C0.214844 300.546 44.1629 339.001 103.371 339.001C168.072 339.001 194.929 293.222 194.929 293.222H196.15V298.715C196.15 312.754 207.137 331.676 237.656 331.676H329.215V243.17H306.02C297.475 243.17 292.591 238.287 292.591 229.741V138.183C292.591 63.7153 256.578 10.001 143.046 10.001C110.695 10.001 21.5785 14.2737 21.5785 83.8581V118.65H119.241V104.611C119.241 92.4036 133.28 89.3516 146.708 89.3516C172.955 89.3516 186.994 100.339 186.994 130.248V135.741H182.721C134.501 135.741 0.214844 144.287 0.214844 243.78ZM104.591 232.793C104.591 206.546 143.046 196.17 176.617 196.17H188.215V204.715C188.215 230.352 164.41 260.261 134.501 260.261C114.968 260.261 104.591 246.832 104.591 232.793Z" fill="#F3F3EB"/>
<path d="M385.215 236.674C385.215 291.715 427.961 329.001 485.549 329.001C548.48 329.001 574.603 284.613 574.603 284.613H575.79V289.94C575.79 303.552 586.476 321.899 616.161 321.899H705.215V236.083H682.655C674.343 236.083 669.593 231.348 669.593 223.062V134.287C669.593 62.0826 634.565 10.001 524.139 10.001C492.673 10.001 405.994 14.1438 405.994 81.6132V115.348H500.985V101.736C500.985 89.8989 514.64 86.9398 527.701 86.9398C553.23 86.9398 566.885 97.5928 566.885 126.593V131.919H562.729C515.827 131.919 385.215 140.205 385.215 236.674ZM486.736 226.021C486.736 200.572 524.139 190.511 556.792 190.511H568.072V198.797C568.072 223.654 544.918 252.654 515.827 252.654C496.829 252.654 486.736 239.634 486.736 226.021Z" fill="#F3F3EB" fill-opacity="0.29"/>
<path d="M385.215 233.17C385.215 287.494 427.277 329.001 487.628 329.001C523.595 329.001 560.171 312.52 580.898 283.222H582.117C582.117 283.222 580.898 292.378 580.898 302.754V321.676H677.215V128.183C677.215 48.2217 623.57 0.000976562 537.006 0.000976562C485.799 0.000976562 430.935 20.1438 404.113 40.8971L440.689 115.365C465.682 98.8841 496.772 85.4555 527.252 85.4555C550.417 85.4555 571.753 94.001 571.753 120.248V125.741H562.609C485.19 125.741 385.215 148.936 385.215 233.17ZM489.457 223.404C489.457 194.715 530.91 186.17 563.219 186.17H572.973V194.715C572.973 220.352 549.808 250.261 519.328 250.261C499.82 250.261 489.457 238.053 489.457 223.404Z" fill="#F3F3EB"/>
<path d="M0.214844 243.17C0.214844 297.494 42.2775 339.001 102.628 339.001C138.595 339.001 175.171 322.52 195.898 293.222H197.117C197.117 293.222 195.898 302.378 195.898 312.754V331.676H292.215V138.183C292.215 58.2217 238.57 10.001 152.006 10.001C100.799 10.001 45.9351 30.1438 19.1125 50.8971L55.6887 125.365C80.6825 108.884 111.772 95.4555 142.252 95.4555C165.417 95.4555 186.753 104.001 186.753 130.248V135.741H177.609C100.19 135.741 0.214844 158.936 0.214844 243.17ZM104.457 233.404C104.457 204.715 145.91 196.17 178.219 196.17H187.973V204.715C187.973 230.352 164.808 260.261 134.328 260.261C114.82 260.261 104.457 248.053 104.457 233.404Z" fill="#F3F3EB" fill-opacity="0.29"/>
</svg>
