<svg width="1238" height="370" viewBox="0 0 1238 370" fill="none" xmlns="http://www.w3.org/2000/svg">
<path d="M2.688 42V36.672H10.128V17.76L10.176 15.456H10.08C9.792 16 9.28 16.64 8.544 17.376L5.808 19.968L2.16 16.128L10.704 7.92H16.128V36.672H23.52V42H2.688ZM45.6769 41.232C44.0449 42.128 42.1089 42.576 39.8689 42.576C37.6289 42.576 35.6769 42.128 34.0129 41.232C32.3809 40.336 31.1009 39.056 30.1729 37.392C29.2449 35.728 28.5569 33.872 28.1089 31.824C27.6929 29.776 27.4849 27.472 27.4849 24.912C27.4849 22.352 27.6929 20.048 28.1089 18C28.5569 15.952 29.2449 14.112 30.1729 12.48C31.1009 10.848 32.3809 9.584 34.0129 8.688C35.6449 7.792 37.5969 7.344 39.8689 7.344C48.0929 7.344 52.2049 13.2 52.2049 24.912C52.2049 27.472 51.9809 29.776 51.5329 31.824C51.1169 33.872 50.4449 35.728 49.5169 37.392C48.6209 39.056 47.3409 40.336 45.6769 41.232ZM33.8689 24.912C33.8689 32.912 35.8689 36.912 39.8689 36.912C43.8689 36.912 45.8689 32.912 45.8689 24.912C45.8689 17.008 43.8689 13.056 39.8689 13.056C35.8689 13.056 33.8689 17.008 33.8689 24.912ZM75.8175 41.232C74.1855 42.128 72.2495 42.576 70.0095 42.576C67.7695 42.576 65.8175 42.128 64.1535 41.232C62.5215 40.336 61.2415 39.056 60.3135 37.392C59.3855 35.728 58.6975 33.872 58.2495 31.824C57.8335 29.776 57.6255 27.472 57.6255 24.912C57.6255 22.352 57.8335 20.048 58.2495 18C58.6975 15.952 59.3855 14.112 60.3135 12.48C61.2415 10.848 62.5215 9.584 64.1535 8.688C65.7855 7.792 67.7375 7.344 70.0095 7.344C78.2335 7.344 82.3455 13.2 82.3455 24.912C82.3455 27.472 82.1215 29.776 81.6735 31.824C81.2575 33.872 80.5855 35.728 79.6575 37.392C78.7615 39.056 77.4815 40.336 75.8175 41.232ZM64.0095 24.912C64.0095 32.912 66.0095 36.912 70.0095 36.912C74.0095 36.912 76.0095 32.912 76.0095 24.912C76.0095 17.008 74.0095 13.056 70.0095 13.056C66.0095 13.056 64.0095 17.008 64.0095 24.912Z" fill="#C62F2D"/>
<path d="M278.824 41.016C281.8 44.04 286.072 45.576 290.104 45.576C297.736 45.576 302.104 40.2 302.104 34.392C302.104 28.488 297.544 25.128 292.84 24.456L301.144 14.808V10.92H280.36V16.248H290.536C292.504 16.248 293.56 16.104 293.56 16.104V16.2C293.56 16.2 292.408 17.208 291.112 18.792L284.872 26.184L286.216 29.352H288.568C292.6 29.352 295.864 31.032 295.864 34.632C295.864 37.56 293.272 39.72 289.768 39.72C286.744 39.72 283.816 38.136 281.992 36.264L278.824 41.016ZM319.588 45.576C328.9 45.576 331.924 37.704 331.924 27.912C331.924 18.12 328.9 10.344 319.588 10.344C310.276 10.344 307.204 18.12 307.204 27.912C307.204 37.704 310.276 45.576 319.588 45.576ZM319.588 39.912C314.932 39.912 313.588 34.632 313.588 27.912C313.588 21.288 314.932 16.056 319.588 16.056C324.244 16.056 325.588 21.288 325.588 27.912C325.588 34.632 324.244 39.912 319.588 39.912ZM349.728 45.576C359.04 45.576 362.064 37.704 362.064 27.912C362.064 18.12 359.04 10.344 349.728 10.344C340.416 10.344 337.344 18.12 337.344 27.912C337.344 37.704 340.416 45.576 349.728 45.576ZM349.728 39.912C345.072 39.912 343.728 34.632 343.728 27.912C343.728 21.288 345.072 16.056 349.728 16.056C354.384 16.056 355.728 21.288 355.728 27.912C355.728 34.632 354.384 39.912 349.728 39.912Z" fill="#C62F2D"/>
<path d="M577.112 40.968C579.896 43.992 583.976 45.576 588.056 45.576C595.112 45.576 600.344 40.584 600.344 33.864C600.344 27.72 595.88 22.68 588.344 22.68C587.096 22.68 585.32 23.112 584.696 23.448H584.6C584.6 23.448 584.744 22.776 584.84 21.864L585.368 16.248H597.944V10.92H579.992L578.408 28.2L581.864 29.448C583.4 28.536 585.32 28.008 587.144 28.008C591.032 28.008 593.96 30.36 593.96 33.912C593.96 37.512 590.888 39.72 587.576 39.72C584.456 39.72 581.864 37.992 580.328 36.312L577.112 40.968ZM617.447 45.576C626.759 45.576 629.783 37.704 629.783 27.912C629.783 18.12 626.759 10.344 617.447 10.344C608.135 10.344 605.063 18.12 605.063 27.912C605.063 37.704 608.135 45.576 617.447 45.576ZM617.447 39.912C612.791 39.912 611.447 34.632 611.447 27.912C611.447 21.288 612.791 16.056 617.447 16.056C622.103 16.056 623.447 21.288 623.447 27.912C623.447 34.632 622.103 39.912 617.447 39.912ZM647.588 45.576C656.9 45.576 659.924 37.704 659.924 27.912C659.924 18.12 656.9 10.344 647.588 10.344C638.276 10.344 635.204 18.12 635.204 27.912C635.204 37.704 638.276 45.576 647.588 45.576ZM647.588 39.912C642.932 39.912 641.588 34.632 641.588 27.912C641.588 21.288 642.932 16.056 647.588 16.056C652.244 16.056 653.588 21.288 653.588 27.912C653.588 34.632 652.244 39.912 647.588 39.912Z" fill="#C62F2D"/>
<path d="M852.888 45H859.32L874.248 15.24V10.92H850.824V16.248H865.368C867.096 16.248 867.624 16.152 867.624 16.152V16.248C867.624 16.248 866.76 17.256 865.656 19.368L852.888 45ZM890.322 45.576C899.634 45.576 902.658 37.704 902.658 27.912C902.658 18.12 899.634 10.344 890.322 10.344C881.01 10.344 877.938 18.12 877.938 27.912C877.938 37.704 881.01 45.576 890.322 45.576ZM890.322 39.912C885.666 39.912 884.322 34.632 884.322 27.912C884.322 21.288 885.666 16.056 890.322 16.056C894.978 16.056 896.322 21.288 896.322 27.912C896.322 34.632 894.978 39.912 890.322 39.912ZM920.463 45.576C929.775 45.576 932.799 37.704 932.799 27.912C932.799 18.12 929.775 10.344 920.463 10.344C911.151 10.344 908.079 18.12 908.079 27.912C908.079 37.704 911.151 45.576 920.463 45.576ZM920.463 39.912C915.807 39.912 914.463 34.632 914.463 27.912C914.463 21.288 915.807 16.056 920.463 16.056C925.119 16.056 926.463 21.288 926.463 27.912C926.463 34.632 925.119 39.912 920.463 39.912Z" fill="#C62F2D"/>
<path d="M1151.79 44.136C1153.95 45.192 1156.45 45.576 1158.75 45.576C1169.31 45.576 1174.45 35.448 1174.45 26.52C1174.45 16.248 1168.4 10.344 1161.3 10.344C1154.53 10.344 1150.06 15.48 1150.06 21.768C1150.06 27.912 1154.29 33.192 1161.01 33.192C1163.46 33.192 1166.24 32.184 1167.39 30.792H1167.49C1166.62 35.448 1163.79 39.912 1158.42 39.912C1156.64 39.912 1154.82 39.384 1153.62 38.808L1151.79 44.136ZM1162.45 28.104C1158.37 28.104 1156.21 25.224 1156.21 21.768C1156.21 18.552 1158.13 16.056 1161.34 16.056C1164.9 16.056 1168.06 20.136 1168.06 24.408C1168.06 26.472 1165.52 28.104 1162.45 28.104ZM1192.04 45.576C1201.35 45.576 1204.38 37.704 1204.38 27.912C1204.38 18.12 1201.35 10.344 1192.04 10.344C1182.73 10.344 1179.66 18.12 1179.66 27.912C1179.66 37.704 1182.73 45.576 1192.04 45.576ZM1192.04 39.912C1187.38 39.912 1186.04 34.632 1186.04 27.912C1186.04 21.288 1187.38 16.056 1192.04 16.056C1196.7 16.056 1198.04 21.288 1198.04 27.912C1198.04 34.632 1196.7 39.912 1192.04 39.912ZM1222.18 45.576C1231.49 45.576 1234.52 37.704 1234.52 27.912C1234.52 18.12 1231.49 10.344 1222.18 10.344C1212.87 10.344 1209.8 18.12 1209.8 27.912C1209.8 37.704 1212.87 45.576 1222.18 45.576ZM1222.18 39.912C1217.53 39.912 1216.18 34.632 1216.18 27.912C1216.18 21.288 1217.53 16.056 1222.18 16.056C1226.84 16.056 1228.18 21.288 1228.18 27.912C1228.18 34.632 1226.84 39.912 1222.18 39.912Z" fill="#C62F2D"/>
<rect x="1.5" y="102.5" width="1235" height="266" stroke="#C62F2D" stroke-width="3"/>
<line y1="164.5" x2="1238" y2="164.5" stroke="#C62F2D" stroke-width="3"/>
<line y1="232.5" x2="1238" y2="232.5" stroke="#C62F2D" stroke-width="3"/>
<line y1="300.5" x2="1238" y2="300.5" stroke="#C62F2D" stroke-width="3"/>
<line y1="368.5" x2="1238" y2="368.5" stroke="#C62F2D" stroke-width="3"/>
<line x1="66.5" y1="101" x2="66.5" y2="370" stroke="#C62F2D" stroke-width="3"/>
<line x1="135.5" y1="101" x2="135.5" y2="370" stroke="#C62F2D" stroke-width="3"/>
<line x1="204.5" y1="101" x2="204.5" y2="370" stroke="#C62F2D" stroke-width="3"/>
<line x1="273.5" y1="101" x2="273.5" y2="370" stroke="#C62F2D" stroke-width="3"/>
<line x1="342.5" y1="101" x2="342.5" y2="370" stroke="#C62F2D" stroke-width="3"/>
<line x1="480.5" y1="101" x2="480.5" y2="370" stroke="#C62F2D" stroke-width="3"/>
<line x1="410.5" y1="101" x2="410.5" y2="370" stroke="#C62F2D" stroke-width="3"/>
<line x1="549.5" y1="101" x2="549.5" y2="370" stroke="#C62F2D" stroke-width="3"/>
<line x1="618.5" y1="101" x2="618.5" y2="370" stroke="#C62F2D" stroke-width="3"/>
<line x1="687.5" y1="101" x2="687.5" y2="370" stroke="#C62F2D" stroke-width="3"/>
<line x1="756.5" y1="101" x2="756.5" y2="370" stroke="#C62F2D" stroke-width="3"/>
<line x1="825.5" y1="101" x2="825.5" y2="370" stroke="#C62F2D" stroke-width="3"/>
<line x1="894.5" y1="101" x2="894.5" y2="370" stroke="#C62F2D" stroke-width="3"/>
<line x1="963.5" y1="101" x2="963.5" y2="370" stroke="#C62F2D" stroke-width="3"/>
<line x1="1032.5" y1="101" x2="1032.5" y2="370" stroke="#C62F2D" stroke-width="3"/>
<line x1="1101.5" y1="101" x2="1101.5" y2="370" stroke="#C62F2D" stroke-width="3"/>
<line x1="1170.5" y1="101" x2="1170.5" y2="370" stroke="#C62F2D" stroke-width="3"/>
<path d="M17.856 151H26.496L28.56 143.8H39.264L41.376 151H50.016L38.352 116.68H29.52L17.856 151ZM30.528 137.08L32.496 130.408C33.12 128.248 33.888 124.504 33.888 124.504H33.984C33.984 124.504 34.752 128.248 35.376 130.408L37.296 137.08H30.528Z" fill="#C62F2D"/>
<path d="M19.776 197.768C19.776 207.944 26.736 215.576 37.776 215.576C44.064 215.576 48.576 212.936 51.6 209.816L47.28 203.672C44.928 206.024 41.568 207.896 38.16 207.896C31.536 207.896 28.464 202.664 28.464 197.576C28.464 192.632 31.296 187.784 38.16 187.784C41.232 187.784 44.544 189.368 46.752 191.288L50.64 184.952C47.28 181.64 42.384 180.104 37.776 180.104C27.168 180.104 19.776 187.784 19.776 197.768Z" fill="#C62F2D"/>
<path d="M32.832 281H40.704V273.128H32.832V281Z" fill="#C62F2D"/>
<path d="M20.528 348V354.24H49.136V348H20.528Z" fill="#C62F2D"/>
<path d="M90.296 337.344H100.136V348H106.664V337.344H116.504V331.104H106.664V320.4H100.136V331.104H90.296V337.344Z" fill="#C62F2D"/>
<path d="M160.256 331.824H184.544V325.584H160.256V331.824ZM160.256 342.864H184.544V336.624H160.256V342.864Z" fill="#C62F2D"/>
<path d="M242.536 350.016H249.448L237.16 312H230.248L242.536 350.016Z" fill="#C62F2D"/>
<path d="M303.224 331.152H310.808V323.28H303.224V331.152ZM299.864 353.328H306.008L310.952 340.032H302.984L299.864 353.328Z" fill="#C62F2D"/>
<path d="M363.632 337.768L387.824 348.472V341.512L371.984 335.272V335.176L387.824 328.888V321.928L363.632 332.632V337.768Z" fill="#C62F2D"/>
<path d="M433.928 348.472L458.12 337.768V332.632L433.928 321.928V328.888L449.768 335.176V335.272L433.928 341.512V348.472Z" fill="#C62F2D"/>
<path d="M506.248 351.016H513.16L525.448 313H518.536L506.248 351.016Z" fill="#C62F2D"/>
<path d="M643.64 352H666.488V344.8H659.144V317.68H651.896L642.632 326.368L647.48 331.552L649.544 329.68C650.456 328.816 650.888 327.856 650.888 327.856H650.984C650.984 327.856 650.936 329.2 650.936 330.496V344.8H643.64V352Z" fill="#C62F2D"/>
<path d="M585.264 352.576C595.008 352.576 598.176 344.608 598.176 334.768C598.176 324.928 595.008 317.104 585.264 317.104C575.52 317.104 572.352 324.928 572.352 334.768C572.352 344.608 575.52 352.576 585.264 352.576ZM585.264 344.896C581.952 344.896 580.992 340.384 580.992 334.768C580.992 329.2 581.952 324.784 585.264 324.784C588.576 324.784 589.536 329.2 589.536 334.768C589.536 340.384 588.576 344.896 585.264 344.896Z" fill="#C62F2D"/>
<path d="M709.64 352H733.4V344.8H718.568C719 340.384 732.872 338.32 732.872 327.616C732.872 320.32 726.776 317.104 721.16 317.104C714.968 317.104 711.08 320.608 709.064 324.496L715.304 328.672C716.312 326.752 718.184 325.024 720.392 325.024C722.168 325.024 724.088 326.032 724.088 328.432C724.088 333.376 709.256 335.632 709.256 348.304C709.256 349.456 709.4 350.656 709.64 352Z" fill="#C62F2D"/>
<path d="M779.44 347.064C782.512 350.184 787.024 351.576 791.152 351.576C799.744 351.576 803.872 345.72 803.872 339.864C803.872 335.064 800.656 331.032 795.568 329.928L802.528 321.912V316.68H780.88V323.88H789.088C791.248 323.88 792.352 323.64 792.352 323.64V323.736C792.352 323.736 791.008 324.984 789.376 326.952L784.864 332.376L786.64 336.456H789.04C792.736 336.456 795.424 337.56 795.424 340.248C795.424 342.12 793.648 343.656 790.528 343.656C787.888 343.656 785.2 342.264 783.472 340.584L779.44 347.064Z" fill="#C62F2D"/>
<path d="M846.152 342.696H861.368V351H869.672V342.696H873.752V335.736H869.672V316.68H859.4L846.152 337.608V342.696ZM854.696 335.736V335.64L859.88 327.768C860.84 326.328 861.56 324.216 861.56 324.216H861.656C861.656 324.216 861.368 326.184 861.368 328.056V335.736H854.696Z" fill="#C62F2D"/>
<path d="M915.776 346.064C918.944 349.088 923.264 350.576 927.488 350.576C934.976 350.576 940.208 345.44 940.208 338.336C940.208 332.144 936.08 327.056 927.92 327.056C927.296 327.056 925.808 327.248 925.424 327.392H925.328C925.328 327.392 925.472 326.72 925.52 326.048L925.712 322.88H937.616V315.68H918.416L917.024 333.632L921.488 335.312C922.928 334.592 924.512 334.16 926.096 334.16C929.216 334.16 931.568 335.744 931.568 338.432C931.568 341.264 929.024 342.656 926.768 342.656C924.176 342.656 921.488 341.168 919.808 339.584L915.776 346.064Z" fill="#C62F2D"/>
<path d="M985.16 334.16C985.16 345.344 992.168 350.576 999.08 350.576C1006.52 350.576 1010.79 344.816 1010.79 339.008C1010.79 333.104 1006.71 327.248 999.56 327.248C997.928 327.248 995.672 327.872 994.856 328.448H994.76C995.816 325.28 998.12 322.784 1002.15 322.784C1003.69 322.784 1006.09 323.36 1006.86 323.792L1009.11 316.592C1006.9 315.536 1003.98 315.104 1001.53 315.104C990.872 315.104 985.16 324.848 985.16 334.16ZM999.08 342.896C996.68 342.896 993.8 340.16 993.8 336.08C993.8 334.496 995.432 334.016 997.352 334.016C1001.05 334.016 1002.54 336.608 1002.54 339.056C1002.54 341.072 1001.19 342.896 999.08 342.896Z" fill="#C62F2D"/>
<path d="M1054.02 350H1062.81L1077.21 321.536V315.68H1052.58V322.88H1066.17C1067.9 322.88 1068.18 322.736 1068.18 322.736V322.832C1068.18 322.832 1067.37 323.6 1066.17 325.952L1054.02 350Z" fill="#C62F2D"/>
<path d="M1123.06 340.92C1123.06 346.392 1127.43 351.576 1135.78 351.576C1144.28 351.576 1148.5 346.344 1148.5 341.112C1148.5 337.656 1146.78 335.496 1144.47 333.912C1145.38 332.808 1147.83 329.496 1147.83 326.04C1147.83 319.656 1142.6 316.104 1136.22 316.104C1128.2 316.104 1124.7 321 1124.7 325.992C1124.7 328.872 1125.99 330.936 1127.82 332.568C1126.42 333.624 1123.06 336.696 1123.06 340.92ZM1138.38 330.888C1135.4 329.64 1132.9 328.44 1132.9 326.184C1132.9 324.696 1133.86 323.496 1136.02 323.496C1138.28 323.496 1139.62 324.744 1139.62 326.664C1139.62 328.632 1138.86 330.12 1138.38 330.888ZM1131.66 340.2C1131.66 338.328 1132.71 336.84 1133.53 335.976C1136.89 337.56 1139.91 338.712 1139.91 340.68C1139.91 342.936 1138.33 344.184 1135.78 344.184C1133.48 344.184 1131.66 342.408 1131.66 340.2Z" fill="#C62F2D"/>
<path d="M1192.41 349.088C1194.71 350.192 1197.45 350.576 1199.99 350.576C1210.65 350.576 1216.36 340.832 1216.36 331.52C1216.36 320.336 1209.35 315.104 1202.44 315.104C1195 315.104 1190.73 320.864 1190.73 326.672C1190.73 332.576 1194.81 338.432 1201.96 338.432C1203.59 338.432 1205.9 337.856 1206.66 337.232H1206.76C1205.7 340.4 1203.4 342.896 1199.37 342.896C1197.69 342.896 1196.01 342.464 1194.66 341.888L1192.41 349.088ZM1204.17 331.664C1200.47 331.664 1198.98 329.072 1198.98 326.624C1198.98 324.608 1200.33 322.784 1202.44 322.784C1204.84 322.784 1207.72 325.52 1207.72 329.6C1207.72 331.184 1206.09 331.664 1204.17 331.664Z" fill="#C62F2D"/>
<path d="M104.424 261.2H111.768L114.36 248.96H108.696L104.424 261.2ZM94.92 261.2H102.264L104.856 248.96H99.192L94.92 261.2Z" fill="#C62F2D"/>
<path d="M170.872 288.56H177.688C174.136 281.792 172.264 274.544 172.264 267.344C172.264 260.624 174.136 253.952 177.688 248H170.872C167.08 253.856 164.92 260.432 164.92 267.344C164.92 275.408 167.176 282.704 170.872 288.56Z" fill="#C62F2D"/>
<path d="M233.248 288.56H240.064C243.76 282.704 246.016 275.408 246.016 267.344C246.016 260.432 243.856 253.856 240.064 248H233.248C236.8 253.952 238.672 260.624 238.672 267.344C238.672 274.544 236.8 281.792 233.248 288.56Z" fill="#C62F2D"/>
<path d="M304.616 278.024C304.616 284.888 310.808 285.8 314.168 285.8C315.368 285.8 316.232 285.704 316.232 285.704V279.752C316.232 279.752 315.704 279.848 315.032 279.848C313.64 279.848 311.528 279.464 311.528 277.256V271.16C311.528 267.656 309.656 265.88 307.496 265.112V265.016C309.8 264.248 311.528 261.944 311.528 258.92V253.304C311.528 251.096 313.64 250.712 315.032 250.712C315.704 250.712 316.232 250.808 316.232 250.808V244.856C316.232 244.856 315.368 244.76 314.168 244.76C310.808 244.76 304.616 245.672 304.616 252.536V256.76C304.616 259.688 303.032 261.272 300.536 261.512V268.712C303.272 268.952 304.616 270.728 304.616 273.32V278.024Z" fill="#C62F2D"/>
<path d="M363.728 279.752V285.704C363.728 285.704 364.592 285.8 365.792 285.8C369.152 285.8 375.344 284.888 375.344 278.024V273.32C375.344 270.824 376.88 268.808 379.424 268.712V261.512C376.64 261.32 375.344 259.208 375.344 256.76V252.536C375.344 245.672 369.152 244.76 365.792 244.76C364.592 244.76 363.728 244.856 363.728 244.856V250.808C363.728 250.808 364.256 250.712 364.928 250.712C366.32 250.712 368.432 251.096 368.432 253.304V258.92C368.432 262.136 370.448 264.392 372.464 265.016V265.112C369.776 265.832 368.432 268.568 368.432 271.16V277.256C368.432 279.464 366.32 279.848 364.928 279.848C364.256 279.848 363.728 279.752 363.728 279.752Z" fill="#C62F2D"/>
<path d="M438.36 285.56H450.168V279.8H445.272V250.76H450.168V245H438.36V285.56Z" fill="#C62F2D"/>
<path d="M509.728 279.8V285.56H521.536V245H509.728V250.76H514.624V279.8H509.728Z" fill="#C62F2D"/>
<path d="M572.544 269.832H578.976C578.976 267.384 580.08 266.184 581.568 266.184C584.112 266.184 585.408 270.024 589.872 270.024C595.392 270.024 598.176 266.712 598.176 260.28H591.792C591.792 262.728 590.688 263.928 589.152 263.928C586.656 263.928 585.36 260.088 580.896 260.088C575.328 260.088 572.544 263.4 572.544 269.832Z" fill="#C62F2D"/>
<path d="M636.208 267.528C636.208 277.416 643.84 285.24 656.416 285.24V279C648.544 279 644.32 273.624 644.32 267.528C644.32 261.72 648.976 255.96 655.216 255.96C658.192 255.96 661.696 256.968 661.696 259.032H659.344C652 259.032 648.448 263.256 648.448 267.48C648.448 271.848 652.144 276.216 659.344 276.216H672.928V270.504H669.376V261C669.376 254.76 665.68 249.48 655.072 249.48C644.272 249.48 636.208 257.4 636.208 267.528ZM656.656 267.288C656.656 265.56 657.712 264.072 659.92 264.072H661.696V270.504H659.824C657.712 270.504 656.656 269.064 656.656 267.288Z" fill="#C62F2D"/>
<path d="M706.944 284H713.376L714.864 275.36H720.048L718.56 284H724.992L726.48 275.36H731.424L732.384 269.6H727.44L728.256 265.04H733.296L734.256 259.28H729.216L730.896 249.68H724.464L722.784 259.28H717.6L719.28 249.68H712.848L711.168 259.28H706.416L705.456 265.04H710.208L709.392 269.6H704.544L703.584 275.36H708.432L706.944 284ZM715.824 269.6L716.64 265.04H721.824L721.008 269.6H715.824Z" fill="#C62F2D"/>
<path d="M768.456 284H776.856V268.016C776.856 265.856 776.472 262.16 776.472 262.16H776.568C776.568 262.16 778.104 265.76 779.448 268.016L789 284H797.448V249.68H789.048V265.712C789.048 267.872 789.432 271.568 789.432 271.568H789.336C789.336 271.568 787.8 267.968 786.456 265.712L776.952 249.68H768.456V284ZM800.568 262.112C800.568 266.576 804.072 270.08 808.776 270.08C813.384 270.08 816.936 266.576 816.936 262.112C816.936 257.744 813.384 254.096 808.776 254.096C804.072 254.096 800.568 257.744 800.568 262.112ZM806.424 262.064C806.424 260.768 807.384 259.664 808.776 259.664C810.168 259.664 811.128 260.768 811.128 262.064C811.128 263.456 810.168 264.512 808.776 264.512C807.384 264.512 806.424 263.456 806.424 262.064ZM801 277.664H816.312V272.144H801V277.664Z" fill="#C62F2D"/>
<path d="M848.016 279.68C850.512 282.272 854.304 283.856 857.808 284.384V288.752H863.04V284.384C869.184 283.424 872.64 279.008 872.64 273.92C872.64 263.312 857.04 263.6 857.04 259.52C857.04 257.6 858.96 256.832 860.688 256.832C863.376 256.832 866.352 258.224 868.272 259.856L871.824 252.992C869.328 250.784 866.208 249.584 863.04 249.248V244.88H857.808V249.392C852.48 250.4 848.64 254.24 848.64 259.616C848.64 269.936 864.24 270.272 864.24 274.112C864.24 276.176 862.368 276.848 860.64 276.848C857.712 276.848 854.448 275.12 852.432 273.296L848.016 279.68Z" fill="#C62F2D"/>
<path d="M919.32 265.664C924.12 265.664 928.008 262.016 928.008 257.408C928.008 252.896 924.12 249.104 919.32 249.104C914.472 249.104 910.632 252.896 910.632 257.408C910.632 262.016 914.472 265.664 919.32 265.664ZM912.552 284H919.848L946.344 249.68H939.048L912.552 284ZM919.32 259.904C917.88 259.904 916.68 258.8 916.68 257.36C916.68 256.016 917.88 254.864 919.32 254.864C920.76 254.864 921.96 256.016 921.96 257.36C921.96 258.8 920.76 259.904 919.32 259.904ZM931.128 276.32C931.128 280.928 934.968 284.576 939.816 284.576C944.616 284.576 948.504 280.928 948.504 276.32C948.504 271.808 944.616 268.016 939.816 268.016C934.968 268.016 931.128 271.808 931.128 276.32ZM937.176 276.272C937.176 274.928 938.376 273.776 939.816 273.776C941.256 273.776 942.456 274.928 942.456 276.272C942.456 277.712 941.256 278.816 939.816 278.816C938.376 278.816 937.176 277.712 937.176 276.272Z" fill="#C62F2D"/>
<path d="M984.784 272.432H991.744L997.072 258.032L1002.45 272.432H1009.41L999.664 249.68H994.528L984.784 272.432Z" fill="#C62F2D"/>
<path d="M1056.11 274.064C1056.11 279.92 1061.06 284.576 1068.88 284.576C1077.28 284.576 1081.98 279.584 1081.98 273.44V270.128H1086.26V262.928H1081.98V258.704H1073.73V262.928H1069.55C1067.25 262.928 1066.05 261.344 1066.05 259.616C1066.05 257.168 1067.87 256.064 1070.03 256.064C1070.75 256.064 1071.33 256.112 1071.9 256.256L1073.82 249.68C1072.19 249.344 1070.56 249.104 1068.88 249.104C1063.17 249.104 1057.55 251.696 1057.55 258.368C1057.55 261.584 1059.09 264.512 1061.58 265.76V265.856C1058.32 267.2 1056.11 270.512 1056.11 274.064ZM1064.7 273.536C1064.7 270.944 1066.82 270.128 1069.02 270.128H1073.73V272.96C1073.73 275.216 1072.05 276.944 1068.88 276.944C1066.53 276.944 1064.7 275.408 1064.7 273.536Z" fill="#C62F2D"/>
<path d="M1133.17 277.168L1135.81 272.512H1135.9L1138.59 277.168L1144.45 272.896L1140.8 268.912V268.816L1146.13 267.712L1143.87 260.848L1138.93 263.056L1139.5 257.68H1132.21L1132.74 263.056L1127.84 260.896L1125.63 267.76L1130.91 268.864V268.96L1127.31 272.944L1133.17 277.168Z" fill="#C62F2D"/>
<path d="M1196.83 270.824H1211.9V263.624H1196.83V270.824Z" fill="#C62F2D"/>
<path d="M96.04 215H104.44V187.88H114.856V180.68H85.624V187.88H96.04V215Z" fill="#C62F2D"/>
<path d="M158.592 212.984C160.992 214.664 163.392 215.576 166.416 215.576C172.464 215.576 175.104 210.44 176.688 206.408L186.816 180.68H177.984L173.76 193.064C172.944 195.464 172.416 197.624 172.416 197.624H172.32C172.32 197.624 171.6 195.464 170.448 193.016L164.736 180.68H155.52L168.768 206.648C168.288 207.8 167.376 208.424 166.032 208.424C164.448 208.424 163.152 207.464 162.24 206.696L158.592 212.984Z" fill="#C62F2D"/>
<path d="M220.2 196.664C220.2 204.92 226.392 211.256 235.56 211.256V215.576H243.96V211.256C253.128 211.256 259.32 204.92 259.32 196.664C259.32 188.648 253.128 182.504 243.96 182.504V179H235.56V182.504C226.392 182.504 220.2 188.648 220.2 196.664ZM243.96 204.248V189.512C247.848 189.512 250.776 192.728 250.776 196.664C250.776 200.84 247.848 204.248 243.96 204.248ZM228.744 196.664C228.744 192.728 231.672 189.512 235.56 189.512V204.248C231.672 204.248 228.744 200.84 228.744 196.664Z" fill="#C62F2D"/>
<path d="M291.384 215H300.696L304.632 207.8C305.832 205.64 306.744 203.528 306.744 203.528H306.84C306.84 203.528 307.752 205.64 308.952 207.8L312.888 215H322.248L311.784 197.96L322.296 180.68H312.744L308.952 187.736C307.752 189.944 306.84 192.152 306.84 192.152H306.744C306.744 192.152 305.784 189.896 304.632 187.736L300.888 180.68H291.336L301.8 197.96L291.384 215Z" fill="#C62F2D"/>
<path d="M359.6 215H385.088V221.72H392.528V207.848H388.304V180.68H379.904V207.848H368V180.68H359.6V215Z" fill="#C62F2D"/>
<path d="M439.576 202.856C443.176 202.856 446.344 201.752 448.024 201.032H448.12C448.12 201.032 448.024 201.896 448.024 202.568V215H456.616V180.68H448.024V193.64C446.824 194.36 444.568 195.224 441.976 195.224C438.808 195.224 437.416 193.4 437.416 190.136V180.68H428.824V192.104C428.824 198.728 432.328 202.856 439.576 202.856Z" fill="#C62F2D"/>
<path d="M494.6 215H537.08V180.68H528.68V207.848H520.04V180.68H511.64V207.848H503V180.68H494.6V215Z" fill="#C62F2D"/>
<path d="M562.6 215H601.864V221.72H609.304V207.848H605.08V180.68H596.68V207.848H588.04V180.68H579.64V207.848H571V180.68H562.6V215Z" fill="#C62F2D"/>
<path d="M644.88 215H659.136C665.808 215 670.32 210.104 670.32 203.192C670.32 196.28 665.808 191.288 659.136 191.288H653.28V180.68H636.24V187.88H644.88V215ZM653.28 207.8V198.488H657.408C660.336 198.488 661.776 200.456 661.776 203.192C661.776 205.928 660.336 207.8 657.552 207.8H653.28Z" fill="#C62F2D"/>
<path d="M783.6 215H797.856C804.528 215 809.04 210.104 809.04 203.192C809.04 196.28 804.528 191.288 797.856 191.288H792V180.68H783.6V215ZM792 207.8V198.488H796.128C799.056 198.488 800.496 200.456 800.496 203.192C800.496 205.928 799.056 207.8 796.272 207.8H792Z" fill="#C62F2D"/>
<path d="M734.4 216H742.8V181.68H734.4V216ZM705.6 216H719.376C726.048 216 730.56 211.104 730.56 204.192C730.56 197.28 726.048 192.288 719.376 192.288H714V181.68H705.6V216ZM714 208.8V199.488H717.648C720.576 199.488 722.016 201.456 722.016 204.192C722.016 206.928 720.576 208.8 717.792 208.8H714Z" fill="#C62F2D"/>
<path d="M843.96 211.296C847.032 213.984 851.304 216.576 857.496 216.576C868.152 216.576 875.64 208.992 875.64 198.672C875.64 189.024 869.064 181.104 857.88 181.104C852.792 181.104 847.8 182.736 844.488 186.192L848.376 192.528C851.256 190.032 854.136 188.688 857.544 188.688C862.584 188.688 865.8 191.568 866.712 195.456H852.504V202.176H866.664C865.752 205.968 862.728 208.992 857.544 208.992C853.896 208.992 850.536 207.456 848.088 205.296L843.96 211.296Z" fill="#C62F2D"/>
<path d="M905.6 215H914V201.56H918.704C920.336 209.672 926.96 215.576 935.84 215.576C946.112 215.576 953.504 207.704 953.504 197.624C953.504 187.784 946.112 180.104 935.84 180.104C926.72 180.104 919.952 186.152 918.56 194.408H914V180.68H905.6V215ZM926.864 197.624C926.864 192.008 930.8 187.784 935.84 187.784C940.88 187.784 944.816 192.008 944.816 197.624C944.816 203.48 940.88 207.896 935.84 207.896C930.8 207.896 926.864 203.48 926.864 197.624Z" fill="#C62F2D"/>
<path d="M981.384 215H990.744L997.224 203.432H1000.3V215H1008.7V180.68H996.744C993.24 180.68 991.56 180.92 990.072 181.496C986.424 182.888 983.736 186.344 983.736 191.624C983.736 195.752 985.368 199.64 989.256 201.8V201.896C989.256 201.896 988.92 202.376 987.96 203.96L981.384 215ZM996.648 196.472C993.96 196.472 992.28 195.128 992.28 192.056C992.28 190.808 992.568 189.56 993.432 188.84C994.2 188.216 995.496 187.88 997.464 187.88H1000.3V196.472H996.648Z" fill="#C62F2D"/>
<path d="M1064.84 204.392H1071.94L1072.71 180.68H1064.07L1064.84 204.392ZM1064.6 215H1072.18V207.8H1064.6V215Z" fill="#C62F2D"/>
<path d="M1135.48 205.392H1143.45V203.664C1143.45 199.392 1151.66 198.24 1151.66 190.368C1151.66 184.176 1145.85 180.96 1140.47 180.96C1135.86 180.96 1132.5 182.88 1130.44 184.944L1135.05 190.56C1136.3 189.456 1137.88 188.496 1139.61 188.496C1141.43 188.496 1143.02 189.696 1143.02 191.328C1143.02 195.36 1135.48 196.512 1135.48 202.992V205.392ZM1135.67 216H1143.26V208.8H1135.67V216Z" fill="#C62F2D"/>
<path d="M1197.53 220.328H1203.62L1209.05 207.032H1201.13L1197.53 220.328Z" fill="#C62F2D"/>
<path d="M88.6 151H102.856C109.528 151 114.04 146.488 114.04 140.152C114.04 133.816 109.528 129.208 102.856 129.208H97V123.88H110.92V116.68H88.6V151ZM97 143.8V136.408H101.128C104.056 136.408 105.496 137.992 105.496 140.152C105.496 142.312 104.056 143.8 101.272 143.8H97Z" fill="#C62F2D"/>
<path d="M158.6 151H171.224C178.04 151 184.28 148.264 184.28 140.776C184.28 137.752 182.84 134.248 178.904 133.048V132.952C181.496 131.464 182.888 128.536 182.888 125.656C182.888 119.752 178.088 116.68 171.224 116.68H158.6V151ZM167 129.976V123.88H171.176C173.432 123.88 174.344 125.224 174.344 126.808C174.344 128.44 173.432 129.976 171.32 129.976H167ZM167 143.8V136.696H172.088C174.536 136.696 175.688 138.28 175.688 140.2C175.688 142.12 174.488 143.8 172.04 143.8H167Z" fill="#C62F2D"/>
<path d="M230.6 151H239V123.88H251.624V116.68H230.6V151Z" fill="#C62F2D"/>
<path d="M302.528 143.848C305.36 138.568 306.272 130.936 306.272 125.464V123.88H313.136V143.848H302.528ZM290.384 143.848V157.72H298.112V151H317.936V157.72H325.376V143.848H321.536V116.68H298.304V124.792C298.304 130.984 297.44 137.752 293.936 143.848H290.384Z" fill="#C62F2D"/>
<path d="M364.6 151H386.776V143.8H373V137.32H383.464V130.12H373V123.88H386.104V116.68H364.6V151Z" fill="#C62F2D"/>
<path d="M570.72 146.344C574.032 149.752 578.592 151.576 583.296 151.576C589.824 151.576 595.536 147.688 595.536 141.016C595.536 137.272 593.472 134.536 590.16 133.384V133.288C592.368 131.992 594.624 129.736 594.624 125.8C594.624 119.128 588.672 116.104 583.632 116.104C579.696 116.104 575.52 116.968 571.728 120.136L574.944 126.136C577.296 124.264 579.888 123.304 582.048 123.304C584.592 123.304 586.08 124.792 586.08 126.904C586.08 128.728 584.64 130.36 582.096 130.36H578.736V137.032H582.864C585.648 137.032 586.896 138.376 586.896 140.392C586.896 142.888 585.312 144.232 582.384 144.232C579.504 144.232 576.816 142.504 575.088 140.824L570.72 146.344Z" fill="#C62F2D"/>
<path d="M639.6 151H648.048L657.6 135.016C658.944 132.76 660.48 129.16 660.48 129.16H660.576C660.576 129.16 660.192 132.856 660.192 135.016V151H668.592V116.68H660.096L650.592 132.712C649.248 134.968 647.712 138.568 647.712 138.568H647.616C647.616 138.568 648 134.872 648 132.712V116.68H639.6V151Z" fill="#C62F2D"/>
<path d="M724.576 115.144C729.424 115.144 733.648 112.504 733.648 107.8V107.272H727.552V107.848C727.552 109.816 725.968 110.68 724.576 110.68C723.136 110.68 721.6 109.816 721.6 107.848V107.272H715.456V107.8C715.456 112.504 719.68 115.144 724.576 115.144ZM709.6 151H718.048L727.6 135.016C728.944 132.76 730.48 129.16 730.48 129.16H730.576C730.576 129.16 730.192 132.856 730.192 135.016V151H738.592V116.68H730.096L720.592 132.712C719.248 134.968 717.712 138.568 717.712 138.568H717.616C717.616 138.568 718 134.872 718 132.712V116.68H709.6V151Z" fill="#C62F2D"/>
<path d="M779.6 151H788V137.08H791.456L798.704 151H808.112L798.32 133.192V133.096L807.584 116.68H798.56L791.456 129.928H788V116.68H779.6V151Z" fill="#C62F2D"/>
<path d="M843.768 143.752V151.384C853.416 151.384 858.6 144.952 858.6 128.056V123.88H865.272V151H873.672V116.68H850.632V127.96C850.632 140.248 847.848 143.224 843.768 143.752Z" fill="#C62F2D"/>
<path d="M910.256 151H918.704L919.76 135.544C919.952 132.952 919.76 129.784 919.76 129.784H919.856C919.856 129.784 921.008 133.384 921.776 135.544L925.376 145.48H932.576L936.176 135.544C936.944 133.384 938.096 129.784 938.096 129.784H938.192C938.192 129.784 938 132.952 938.192 135.544L939.248 151H947.648L944.864 116.68H935.744L930.752 131.176C929.984 133.384 929.024 136.84 929.024 136.84H928.928C928.928 136.84 927.968 133.384 927.2 131.176L922.208 116.68H913.088L910.256 151Z" fill="#C62F2D"/>
<path d="M982.6 151H991V137.56H1003.48V151H1011.88V116.68H1003.48V130.408H991V116.68H982.6V151Z" fill="#C62F2D"/>
<path d="M1049.73 133.624C1049.73 143.704 1057.31 151.576 1067.68 151.576C1078.05 151.576 1085.63 143.704 1085.63 133.624C1085.63 123.784 1078.05 116.104 1067.68 116.104C1057.31 116.104 1049.73 123.784 1049.73 133.624ZM1058.42 133.624C1058.42 128.008 1062.54 123.784 1067.68 123.784C1072.82 123.784 1076.94 128.008 1076.94 133.624C1076.94 139.48 1072.82 143.896 1067.68 143.896C1062.54 143.896 1058.42 139.48 1058.42 133.624Z" fill="#C62F2D"/>
<path d="M1121.6 151H1130V123.832H1142.19V151H1150.59V116.68H1121.6V151Z" fill="#C62F2D"/>
<path d="M1192.6 151H1201V140.392H1206.86C1213.53 140.392 1218.04 135.4 1218.04 128.488C1218.04 121.576 1213.53 116.68 1206.86 116.68H1192.6V151ZM1201 133.192V123.88H1205.27C1208.06 123.88 1209.5 125.752 1209.5 128.488C1209.5 131.224 1208.06 133.192 1205.13 133.192H1201Z" fill="#C62F2D"/>
<path d="M433.6 151H455.776V143.8H442V137.32H452.464V130.12H442V123.88H455.104V116.68H433.6V151ZM446.608 113.992H452.656V107.272H446.608V113.992ZM436.576 113.992H442.624V107.272H436.576V113.992Z" fill="#C62F2D"/>
<path d="M492.288 151H501.696L508.368 137.08H511.632V151H520.032V137.08H523.296L529.968 151H539.376L530.16 133.192V133.096L538.656 116.68H529.632L523.296 129.928H520.032V116.68H511.632V129.928H508.368L502.032 116.68H493.008L501.504 133.096V133.192L492.288 151Z" fill="#C62F2D"/>
</svg>
