<svg width="603" height="190" viewBox="0 0 603 190" fill="none" xmlns="http://www.w3.org/2000/svg">
<path d="M27 85.603C28.7559 87.2115 31.1896 88 33.4692 88C37.5355 88 40 85.6976 40 82.6698C40 77.4026 32.5758 77.8126 32.5758 76.1095C32.5758 75.6679 32.9147 75.321 34.0545 75.321C35.41 75.321 37.1351 75.8887 38.0592 76.6456L39.8768 72.8609C38.2749 71.5362 36.2417 71 34.2085 71C30.5427 71 27.6161 72.7978 27.6161 76.141C27.6161 81.4712 35.0403 81.0928 35.0403 82.8275C35.0403 83.3321 34.6706 83.679 33.5924 83.679C32.0829 83.679 30.4502 83.0482 29.2796 82.039L27 85.603Z" fill="#F3F3EB"/>
<path d="M40 85.603C41.7559 87.2115 44.1896 88 46.4692 88C50.5355 88 53 85.6976 53 82.6698C53 77.4026 45.5758 77.8126 45.5758 76.1095C45.5758 75.6679 45.9147 75.321 47.0545 75.321C48.41 75.321 50.1351 75.8887 51.0592 76.6456L52.8768 72.8609C51.2749 71.5362 49.2417 71 47.2085 71C43.5427 71 40.6161 72.7978 40.6161 76.141C40.6161 81.4712 48.0403 81.0928 48.0403 82.8275C48.0403 83.3321 47.6706 83.679 46.5924 83.679C45.0829 83.679 43.4502 83.0482 42.2796 82.039L40 85.603Z" fill="#F3F3EB"/>
<path d="M0 85.603C1.75592 87.2115 4.18957 88 6.46919 88C10.5355 88 13 85.6976 13 82.6698C13 77.4026 5.57583 77.8126 5.57583 76.1095C5.57583 75.6679 5.91469 75.321 7.0545 75.321C8.40995 75.321 10.1351 75.8887 11.0592 76.6456L12.8768 72.8609C11.2749 71.5362 9.24171 71 7.20853 71C3.54265 71 0.616114 72.7978 0.616114 76.141C0.616114 81.4712 8.04028 81.0928 8.04028 82.8275C8.04028 83.3321 7.67062 83.679 6.59242 83.679C5.08294 83.679 3.45024 83.0482 2.27962 82.039L0 85.603Z" fill="#F3F3EB"/>
<path d="M13 85.603C14.891 87.2115 17.5118 88 19.9668 88C24.346 88 27 85.6976 27 82.6698C27 77.4026 19.0047 77.8126 19.0047 76.1095C19.0047 75.6679 19.3697 75.321 20.5972 75.321C22.0569 75.321 23.9147 75.8887 24.91 76.6456L26.8673 72.8609C25.1422 71.5362 22.9526 71 20.763 71C16.8152 71 13.6635 72.7978 13.6635 76.141C13.6635 81.4712 21.6588 81.0928 21.6588 82.8275C21.6588 83.3321 21.2607 83.679 20.0995 83.679C18.4739 83.679 16.7156 83.0482 15.455 82.039L13 85.603Z" fill="#F3F3EB"/>
<path d="M0 123.647C0 139.479 12.6884 150 28.5 150C44.3116 150 57 139.479 57 123.647C57 107.718 44.3116 97 28.4024 97C12.6884 97 0 107.718 0 123.647ZM17.0805 123.647C17.0805 115.978 22.351 111.16 28.5 111.16C34.649 111.16 39.9195 115.978 39.9195 123.647C39.9195 131.219 34.649 135.84 28.5 135.84C22.351 135.84 17.0805 131.219 17.0805 123.647Z" fill="#F3F3EB"/>
<path d="M134.549 28C97.3439 28 71 55.2308 71 97.2308C71 138.769 97.3439 166 134.549 166L239 166L239 125.615L134.549 125.615C117.217 125.615 107.974 114.308 107.974 97C107.974 79.6923 117.217 68.3846 134.549 68.3846L239 68.3846L239 28L134.549 28Z" fill="#F3F3EB"/>
<path d="M257 190H303.068V101.51C303.068 89.5524 300.962 69.0909 300.962 69.0909H301.488C301.488 69.0909 309.912 89.021 317.283 101.51L369.669 190H416V0H369.932V88.7552C369.932 100.713 372.038 121.175 372.038 121.175H371.512C371.512 121.175 363.088 101.245 355.717 88.7552L303.594 0H257V190Z" fill="#F3F3EB"/>
<path d="M438 190H505.271C564.862 190 603 154.392 603 94.6014C603 34.8112 564.862 0 505.271 0H438V190ZM484.348 150.14V39.8601H503.417C534.669 39.8601 555.063 58.4615 555.063 94.6014C555.063 131.007 535.464 150.14 503.417 150.14H484.348Z" fill="#F3F3EB"/>
</svg>
