<svg width="1440" height="1159" viewBox="0 0 1440 1159" fill="none" xmlns="http://www.w3.org/2000/svg">
<path d="M1064.29 631.599L1117.11 686.603L1230.04 610.194C1244.3 600.327 1254.46 590.476 1254.46 590.476L1254.99 591.035C1254.99 591.035 1246.45 602.56 1238.08 618.57L1173.41 745.236L1225.69 799.682L1450.11 649.111L1401.58 598.575L1265.34 696.94C1252.11 706.803 1244.48 715.522 1244.48 715.522L1243.94 714.963C1243.94 714.963 1251.3 705.965 1259.18 690.518L1340.45 534.916L1302.64 495.548L1163.19 590.562C1149.42 599.866 1141.52 608.306 1141.52 608.306L1140.99 607.748C1140.99 607.748 1148.61 599.029 1157.02 584.14L1242.85 433.284L1193.52 381.91L1064.29 631.599Z" fill="#C62F2D"/>
<path d="M605.323 688.96L597.9 621.075L475.577 614.048C460.008 613.314 447.376 614.805 447.376 614.805L447.301 614.116C447.301 614.116 459.707 610.557 474.447 603.71L589.987 548.71L582.639 481.514L340.263 466.652L347.083 529.023L498.039 533.092C512.874 533.27 523.087 531.21 523.087 531.21L523.162 531.899C523.162 531.899 512.987 534.304 498.906 541.018L355.674 607.59L360.987 656.178L512.396 664.382C527.306 665.249 537.556 663.534 537.556 663.534L537.632 664.223C537.632 664.223 527.419 666.283 513.262 672.308L369.39 733.022L376.323 796.427L605.323 688.96Z" fill="#C62F2D"/>
<path d="M832.1 400.291L831.268 401.886L832.52 403.183L885.482 458.03L886.941 459.54L888.68 458.369L1002.16 381.947L1002.17 381.94L1002.19 381.933C1007.02 378.602 1011.39 375.277 1015.07 372.323C1012.47 376.512 1009.53 381.519 1006.62 387.06L1006.61 387.07L1006.6 387.081L941.513 513.617L940.695 515.208L941.94 516.496L994.365 570.787L995.818 572.291L997.555 571.131L1223.06 420.533L1225.54 418.874L1223.47 416.721L1174.81 366.328L1173.3 364.771L1171.54 366.032L1034.64 464.402L1034.62 464.413L1034.61 464.424C1031.87 466.453 1029.37 468.435 1027.12 470.305C1028.72 467.579 1030.42 464.53 1032.14 461.183C1032.14 461.18 1032.14 461.176 1032.14 461.173L1113.92 305.75L1114.76 304.152L1113.51 302.85L1075.6 263.594L1074.14 262.079L1072.4 263.26L932.273 358.283C932.271 358.284 932.27 358.285 932.268 358.286C929.371 360.235 926.728 362.146 924.357 363.953C926.044 361.333 927.834 358.405 929.66 355.196C929.661 355.194 929.662 355.193 929.662 355.192L1016.02 204.487L1016.95 202.86L1015.65 201.508L966.181 150.281L963.768 147.782L962.164 150.857L832.1 400.291Z" stroke="#C62F2D" stroke-width="5"/>
<path d="M642.015 969.338L643.648 968.577L643.448 966.793L635.836 898.941L635.602 896.857L633.503 896.732L510.782 889.416L510.77 889.415L510.757 889.414C506.08 889.183 501.666 889.15 497.77 889.217C501.602 887.74 505.947 885.946 510.515 883.841L510.525 883.836L510.536 883.831L626.302 829.151L627.922 828.386L627.723 826.612L620.188 759.449L619.955 757.373L617.865 757.241L374.697 741.804L371.712 741.615L372.045 744.579L379.038 806.92L379.279 809.069L381.447 809.132L532.884 813.562L532.903 813.563L532.921 813.563C535.439 813.599 537.827 813.572 540.058 813.502C537.786 814.446 535.353 815.518 532.793 816.728C532.79 816.73 532.786 816.732 532.782 816.733L389.289 882.9L387.646 883.657L387.847 885.448L393.295 934.012L393.53 936.103L395.636 936.222L547.527 944.785C547.529 944.785 547.532 944.785 547.534 944.785C550.123 944.941 552.574 945.021 554.86 945.046C552.591 945.883 550.16 946.835 547.604 947.914C547.603 947.915 547.602 947.915 547.601 947.915L403.435 1008.23L401.702 1008.96L401.911 1010.82L409.02 1074.19L409.407 1077.64L412.563 1076.17L642.015 969.338Z" stroke="#C62F2D" stroke-width="5"/>
<path d="M682.44 961.782L790.395 904.083L768.473 790.695L902.218 719.212L976.319 804.713L1096.38 761.338L711.109 350.123L600.754 409.104L682.44 961.782ZM748.532 684.587L728.909 579.144C722.392 545.095 707.178 488.172 707.178 488.172L708.378 487.531C708.378 487.531 742.784 534.197 764.894 559.911L833.097 639.39L748.532 684.587Z" fill="#C62F2D"/>
<path d="M872.692 748.989C880.486 786.11 912.642 809.02 950.237 801.196C972.642 796.534 993.062 780.53 1001.77 757.823L1002.53 757.665C1002.53 757.665 1003.08 764.079 1004.57 771.17L1007.29 784.1L1067.29 771.614L1039.53 639.394C1028.06 584.754 987.722 558.757 933.798 569.979C901.9 576.618 870.613 597.494 856.881 615.153L890.349 661.297C903.554 646.795 920.994 633.589 939.982 629.637C954.412 626.634 968.929 629.708 972.694 647.643L973.482 651.397L967.786 652.582C919.559 662.619 860.608 691.429 872.692 748.989ZM936.227 728.801C932.112 709.198 956.708 697.984 976.835 693.796L982.911 692.532L984.137 698.371C987.814 715.889 977.675 739.33 958.688 743.281C946.536 745.81 938.329 738.812 936.227 728.801Z" fill="#F3F3EB"/>
<path d="M205.646 650.242L206.17 655.215L197.337 656.138C149.215 661.167 94.7011 674.847 53.6523 701.81C12.4778 728.856 -15.2588 769.384 -9.1104 827.713C-1.20003 902.756 57.9553 954.785 134.135 946.825C177.36 942.308 219.111 917.005 241.852 877.118C241.86 877.429 241.868 877.748 241.877 878.075C242.014 883.026 242.339 889.764 243.09 896.892L245.799 922.588L246.061 925.074L248.547 924.814L367.78 912.355L370.267 912.095L370.005 909.609L342.308 646.856C336.531 592.054 315.103 549.604 281.327 522.292C247.553 494.981 201.733 483.05 147.644 488.702C83.6977 495.384 18.1043 530.082 -12.561 562.186L-13.8568 563.542L-12.9145 565.166L43.0234 661.557L44.5669 664.217L46.8554 662.167C75.25 636.721 111.337 614.844 148.326 610.979C162.391 609.509 175.871 610.988 186.2 616.916C196.385 622.761 203.842 633.121 205.646 650.242ZM123.508 800.447C121.602 782.361 132.145 769.17 148.708 759.789C165.301 750.391 187.444 745.162 207.266 743.091L216.854 742.089L217.815 751.207C219.583 767.98 214.582 787.016 204.509 802.332C194.443 817.637 179.508 828.954 161.582 830.827C150.108 832.026 141.137 829.001 134.797 823.525C128.428 818.025 124.501 809.867 123.508 800.447Z" fill="#F3F3EB" stroke="#C62F2D" stroke-width="5"/>
<path d="M1138.99 320.784C1162.72 349.444 1200.59 352.216 1228.91 324.775C1245.79 308.421 1255.75 283.095 1252.68 258.213L1253.25 257.659C1253.25 257.659 1256.68 263.044 1261.21 268.518L1269.48 278.501L1314.67 234.705L1230.15 132.624C1195.22 90.4395 1148.98 89.3921 1108.36 128.753C1084.34 152.036 1067.39 187.61 1063.87 210.755L1113.56 233.41C1118.09 213.351 1126.81 192.13 1141.12 178.271C1151.99 167.738 1165.73 162.544 1177.2 176.391L1179.6 179.29L1175.31 183.447C1138.98 218.65 1102.19 276.345 1138.99 320.784ZM1183.64 268.233C1171.11 253.098 1186.83 229.741 1201.99 215.05L1206.56 210.615L1210.3 215.124C1221.5 228.649 1223.69 254.961 1209.39 268.82C1200.23 277.69 1190.04 275.962 1183.64 268.233Z" fill="#C62F2D"/>
<path d="M1304.85 484.784C1328.58 513.444 1366.45 516.216 1394.77 488.775C1411.65 472.421 1421.61 447.095 1418.54 422.213L1419.11 421.659C1419.11 421.659 1422.54 427.044 1427.07 432.518L1435.34 442.501L1480.54 398.705L1396.01 296.624C1361.08 254.439 1314.85 253.392 1274.23 292.753C1250.2 316.036 1233.25 351.61 1229.73 374.755L1279.42 397.41C1283.95 377.351 1292.68 356.13 1306.98 342.271C1317.85 331.738 1331.59 326.544 1343.06 340.391L1345.46 343.29L1341.17 347.447C1304.84 382.65 1268.06 440.345 1304.85 484.784ZM1349.5 432.233C1336.97 417.098 1352.69 393.741 1367.85 379.05L1372.43 374.615L1376.16 379.124C1387.36 392.649 1389.55 418.961 1375.25 432.82C1366.1 441.69 1355.9 439.962 1349.5 432.233Z" fill="#C62F2D"/>
<path d="M1318.85 205.785C1342.58 234.445 1380.45 237.217 1408.77 209.775C1425.65 193.421 1435.61 168.095 1432.54 143.214L1433.11 142.66C1433.11 142.66 1436.54 148.044 1441.07 153.519L1449.34 163.501L1494.54 119.706L1410.01 17.6248C1375.08 -24.5601 1328.85 -25.6074 1288.23 13.7531C1264.2 37.0367 1247.25 72.6102 1243.73 95.7552L1293.42 118.411C1297.95 98.3514 1306.68 77.1305 1320.98 63.2711C1331.85 52.7381 1345.59 47.5448 1357.06 61.3918L1359.46 64.29L1355.17 68.4478C1318.84 103.65 1282.06 161.346 1318.85 205.785ZM1363.5 153.234C1350.97 138.099 1366.69 114.742 1381.85 100.051L1386.43 95.6158L1390.16 100.124C1401.36 113.649 1403.55 139.961 1389.25 153.821C1380.1 162.69 1369.9 160.962 1363.5 153.234Z" fill="#C62F2D"/>
<path d="M20.2721 1048.3C27.4921 1110.74 82.705 1148.56 154.009 1134.39C196.503 1125.95 237.527 1098.41 258.121 1059.87L259.561 1059.59C259.561 1059.59 259.338 1070.4 260.717 1082.32L263.232 1104.07L377.029 1081.45L351.313 859.06C340.686 767.156 270.896 724.331 168.622 744.659C108.122 756.684 45.9777 792.719 17.0454 822.87L70.1568 899.871C97.4963 875.059 132.444 852.324 168.456 845.167C195.825 839.727 222.169 844.538 225.657 874.705L226.387 881.019L215.584 883.167C124.113 901.347 9.07696 951.483 20.2721 1048.3ZM142.135 1012.59C138.322 979.621 186.163 960.064 224.335 952.477L235.859 950.187L236.995 960.009C240.402 989.474 217.008 1029.29 180.996 1036.45C157.948 1041.03 144.082 1029.43 142.135 1012.59Z" fill="#C62F2D"/>
</svg>
