<svg width="1407" height="1067" viewBox="0 0 1407 1067" fill="none" xmlns="http://www.w3.org/2000/svg">
<path d="M1003.23 590.383L1051.21 640.143L1153.81 571.018C1166.77 562.092 1175.99 553.181 1175.99 553.181L1176.48 553.686C1176.48 553.686 1168.72 564.113 1161.12 578.596L1102.36 693.187L1149.86 742.441L1353.74 606.226L1309.65 560.507L1185.88 649.494C1173.86 658.417 1166.93 666.305 1166.93 666.305L1166.44 665.8C1166.44 665.8 1173.13 657.659 1180.28 643.685L1254.11 502.917L1219.77 467.302L1093.08 553.258C1080.57 561.676 1073.4 569.311 1073.4 569.311L1072.91 568.806C1072.91 568.806 1079.84 560.918 1087.48 547.448L1165.45 410.975L1120.63 364.499L1003.23 590.383Z" fill="#C62F2D"/>
<path d="M585.259 645.283L578.515 583.87L467.387 577.513C453.243 576.849 441.767 578.198 441.767 578.198L441.699 577.575C441.699 577.575 452.969 574.355 466.36 568.161L571.326 518.404L564.651 457.615L344.456 444.169L350.653 500.594L487.794 504.275C501.271 504.436 510.549 502.573 510.549 502.573L510.618 503.196C510.618 503.196 501.374 505.371 488.581 511.445L358.457 571.671L363.284 615.627L500.836 623.049C514.382 623.833 523.695 622.281 523.695 622.281L523.763 622.905C523.763 622.905 514.485 624.768 501.624 630.219L370.918 685.145L377.217 742.506L585.259 645.283Z" fill="#C62F2D"/>
<path d="M618.267 896.745L619.896 895.984L619.701 894.208L612.957 832.795L612.728 830.707L610.62 830.587L499.492 824.23L499.479 824.229L499.466 824.229C495.74 824.054 492.198 824.016 488.996 824.057C492.169 822.805 495.685 821.327 499.36 819.627L499.371 819.622L499.381 819.617L604.347 769.86L605.962 769.095L605.768 767.329L599.093 706.54L598.865 704.46L596.765 704.332L376.571 690.886L373.591 690.704L373.915 693.656L380.111 750.081L380.348 752.234L382.525 752.293L519.666 755.974L519.685 755.974L519.704 755.974C521.521 755.996 523.263 755.982 524.919 755.94C523.191 756.678 521.368 757.496 519.47 758.397C519.466 758.399 519.463 758.4 519.46 758.402L389.358 818.617L387.72 819.375L387.916 821.158L392.743 865.114L392.973 867.208L395.088 867.322L532.631 874.744C532.632 874.744 532.634 874.744 532.635 874.744C534.519 874.853 536.323 874.918 538.033 874.948C536.31 875.603 534.494 876.328 532.602 877.13C532.601 877.131 532.6 877.131 532.6 877.131L401.901 932.055L400.173 932.781L400.377 934.632L406.675 991.992L407.055 995.449L410.225 993.967L618.267 896.745Z" stroke="#C62F2D" stroke-width="5"/>
<path d="M796.135 386.044L795.298 387.643L796.558 388.943L844.674 438.561L846.132 440.065L847.867 438.901L950.965 369.765L950.976 369.758L950.986 369.751C954.933 367.045 958.538 364.342 961.652 361.884C959.472 365.429 957.069 369.556 954.68 374.074L954.675 374.084L954.669 374.095L895.535 488.568L894.711 490.161L895.964 491.453L943.591 540.568L945.044 542.066L946.777 540.914L1151.64 404.673L1154.14 403.014L1152.05 400.857L1107.84 355.269L1106.34 353.718L1104.58 354.972L980.208 443.963L980.193 443.974L980.178 443.985C978.091 445.526 976.153 447.037 974.375 448.484C975.632 446.314 976.944 443.936 978.271 441.364C978.273 441.36 978.275 441.356 978.277 441.352L1052.57 300.749L1053.42 299.147L1052.15 297.843L1017.71 262.329L1016.25 260.82L1014.51 261.993L887.216 347.957C887.215 347.958 887.214 347.958 887.213 347.959C884.993 349.446 882.936 350.909 881.054 352.311C882.377 350.229 883.761 347.949 885.169 345.486C885.169 345.485 885.169 345.484 885.17 345.484L963.625 209.147L964.563 207.517L963.249 206.162L918.309 159.818L915.898 157.332L914.296 160.39L796.135 386.044Z" stroke="#C62F2D" stroke-width="5"/>
<path d="M656.325 889.088L754.401 836.89L734.485 734.311L855.99 669.644L923.309 746.994L1032.38 707.754L682.37 335.742L582.115 389.1L656.325 889.088ZM716.369 638.32L698.542 542.929C692.621 512.126 678.799 460.63 678.799 460.63L679.889 460.05C679.889 460.05 711.147 502.267 731.233 525.53L793.195 597.431L716.369 638.32Z" fill="#C62F2D"/>
<path d="M829.334 683.216C835.855 714.15 862.765 733.241 894.225 726.721C912.973 722.836 930.062 709.5 937.349 690.578L937.984 690.446C937.984 690.446 938.448 695.791 939.694 701.7L941.965 712.475L992.174 702.07L968.945 591.89C959.346 546.359 925.593 524.696 880.468 534.047C853.775 539.579 827.593 556.976 816.103 571.69L844.109 610.143C855.159 598.058 869.754 587.053 885.643 583.761C897.718 581.258 909.866 583.819 913.017 598.765L913.677 601.893L908.91 602.881C868.552 611.244 819.221 635.252 829.334 683.216ZM882.501 666.394C879.057 650.058 899.64 640.714 916.482 637.224L921.567 636.17L922.592 641.036C925.67 655.634 917.185 675.168 901.296 678.46C891.127 680.568 884.26 674.736 882.501 666.394Z" fill="#F3F3EB"/>
<path d="M222.822 607.142L223.27 611.405L215.473 612.222C171.741 616.802 122.175 629.219 84.8302 653.667C47.3607 678.197 22.0768 714.962 27.6382 767.847C34.7918 835.872 88.6078 883.007 157.936 875.746C197.012 871.653 234.782 848.966 255.591 813.199C255.591 813.213 255.592 813.228 255.592 813.243C255.714 817.727 256.005 823.83 256.684 830.288L259.129 853.535L259.39 856.022L261.876 855.761L370.19 844.416L372.677 844.156L372.415 841.67L347.417 603.949C342.197 554.315 322.734 515.855 292.012 491.116C261.292 466.38 219.615 455.605 170.436 460.756C112.298 466.846 52.6446 498.302 24.7303 527.409L23.4266 528.768L24.3746 530.396L75.1274 617.577L76.6688 620.225L78.9535 618.185C104.744 595.161 137.494 575.378 171.031 571.865C183.785 570.529 195.975 571.861 205.296 577.185C214.473 582.427 221.2 591.724 222.822 607.142ZM148.575 743.049C146.869 726.825 156.359 714.957 171.373 706.48C186.414 697.988 206.497 693.248 224.489 691.364L232.971 690.475L233.814 698.488C235.403 713.6 230.867 730.77 221.734 744.594C212.61 758.405 199.091 768.604 182.888 770.301C172.517 771.387 164.434 768.668 158.732 763.765C153.004 758.837 149.466 751.519 148.575 743.049Z" fill="#F3F3EB" stroke="#C62F2D" stroke-width="5"/>
<path d="M1071.09 309.201C1092.65 335.128 1127.05 337.636 1152.78 312.811C1168.12 298.016 1177.17 275.104 1174.38 252.595L1174.9 252.093C1174.9 252.093 1178.01 256.965 1182.13 261.917L1189.64 270.948L1230.7 231.328L1153.91 138.979C1122.18 100.816 1080.17 99.8684 1043.27 135.476C1021.44 156.54 1006.05 188.722 1002.85 209.661L1047.99 230.156C1052.11 212.01 1060.03 192.812 1073.02 180.274C1082.9 170.745 1095.39 166.047 1105.8 178.573L1107.98 181.195L1104.08 184.957C1071.08 216.803 1037.67 268.998 1071.09 309.201ZM1111.66 261.66C1100.27 247.967 1114.55 226.837 1128.33 213.547L1132.48 209.535L1135.87 213.613C1146.05 225.849 1148.04 249.652 1135.05 262.19C1126.73 270.215 1117.47 268.651 1111.66 261.66Z" fill="#C62F2D"/>
<path d="M1221.78 457.566C1243.34 483.494 1277.74 486.001 1303.47 461.176C1318.8 446.381 1327.85 423.47 1325.06 400.96L1325.58 400.459C1325.58 400.459 1328.69 405.33 1332.81 410.283L1340.32 419.314L1381.38 379.694L1304.59 287.345C1272.86 249.181 1230.86 248.234 1193.95 283.842C1172.13 304.906 1156.73 337.088 1153.53 358.026L1198.68 378.522C1202.79 360.375 1210.72 341.177 1223.71 328.639C1233.58 319.11 1246.07 314.412 1256.49 326.939L1258.67 329.561L1254.77 333.322C1221.76 365.169 1188.35 417.364 1221.78 457.566ZM1262.34 410.025C1250.96 396.333 1265.24 375.203 1279.01 361.912L1283.17 357.9L1286.56 361.979C1296.73 374.214 1298.73 398.018 1285.73 410.556C1277.42 418.58 1268.15 417.017 1262.34 410.025Z" fill="#C62F2D"/>
<path d="M1244.49 231.399C1266.05 257.327 1300.45 259.835 1326.18 235.009C1341.51 220.214 1350.56 197.303 1347.77 174.794L1348.29 174.292C1348.29 174.292 1351.41 179.164 1355.52 184.116L1363.03 193.147L1404.09 153.527L1327.31 61.1778C1295.57 23.0146 1253.57 22.0671 1216.67 57.6751C1194.84 78.739 1179.44 110.921 1176.24 131.859L1221.39 152.355C1225.5 134.208 1233.43 115.01 1246.42 102.472C1256.3 92.9434 1268.78 88.2453 1279.2 100.772L1281.38 103.394L1277.48 107.155C1244.48 139.002 1211.06 191.197 1244.49 231.399ZM1285.05 183.858C1273.67 170.166 1287.95 149.036 1301.72 135.746L1305.88 131.733L1309.27 135.812C1319.44 148.047 1321.44 171.851 1308.44 184.389C1300.13 192.413 1290.87 190.85 1285.05 183.858Z" fill="#C62F2D"/>
<path d="M54.7562 967.357C61.3155 1023.84 111.475 1058.06 176.254 1045.24C214.859 1037.6 252.128 1012.7 270.838 977.829L272.146 977.57C272.146 977.57 271.943 987.349 273.196 998.138L275.481 1017.81L378.864 997.351L355.501 796.16C345.847 713.018 282.444 674.276 189.53 692.665C134.566 703.544 78.1094 736.143 51.8249 763.42L100.076 833.08C124.913 810.634 156.662 790.067 189.378 783.591C214.243 778.67 238.176 783.023 241.345 810.314L242.008 816.026L232.193 817.968C149.094 834.416 44.5857 879.772 54.7562 967.357ZM165.466 935.057C162.003 905.227 205.465 887.535 240.144 880.671L250.613 878.599L251.645 887.485C254.74 914.141 233.487 950.161 200.771 956.636C179.833 960.781 167.235 950.289 165.466 935.057Z" fill="#C62F2D"/>
</svg>
