<svg width="354" height="75" viewBox="0 0 354 75" fill="none" xmlns="http://www.w3.org/2000/svg">
<path d="M0.714844 72.8156V73.3156H1.21484H15.8047C18.3802 73.3156 20.2446 72.7599 21.5018 71.4448C22.7456 70.1436 23.2999 68.1949 23.4996 65.6435L23.4999 65.6393L25.077 43.0202C25.077 43.02 25.0771 43.0197 25.0771 43.0194C25.2759 40.3294 25.2756 37.3482 25.2261 35.0454C25.2215 34.828 25.2164 34.6166 25.211 34.412C25.3223 34.7803 25.4415 35.17 25.5673 35.5749C26.3196 37.9971 27.3117 40.9816 28.2593 43.1806C28.2594 43.1808 28.2595 43.181 28.2596 43.1813L36.1454 61.652L36.275 61.9556H36.6052H50.4064H50.7366L50.8663 61.652L58.752 43.1813C58.7522 43.1809 58.7524 43.1805 58.7526 43.1801C59.7001 40.9811 60.6921 37.9969 61.4444 35.5749C61.5701 35.17 61.6893 34.7803 61.8007 34.4119C61.7953 34.6166 61.7902 34.828 61.7855 35.0454C61.7361 37.3482 61.7357 40.3294 61.9346 43.0194C61.9346 43.0197 61.9346 43.02 61.9346 43.0202L63.5117 65.6393L63.5121 65.6435C63.7118 68.1949 64.266 70.1436 65.5098 71.4448C66.767 72.7599 68.6314 73.3156 71.2069 73.3156H85.7968H86.2968V72.8156V57.9983V57.4983H85.7968H83.3323C82.7401 57.4983 82.3669 57.3316 82.1272 57.0831C81.8793 56.8262 81.7066 56.412 81.6623 55.7895L81.6619 55.7848L77.3244 2.14606L77.2872 1.68636H76.826H58.3915H58.054L57.9278 1.9993L46.6896 29.8559L46.6889 29.8576C45.7965 32.0931 44.9058 34.6471 44.2393 36.6385C43.9453 37.5169 43.6944 38.2871 43.5058 38.8739C43.3172 38.2871 43.0664 37.5169 42.7724 36.6385C42.1058 34.6471 41.2151 32.0931 40.3227 29.8576L40.322 29.8559L29.0839 1.9993L28.9576 1.68636H28.6202H10.1857H9.72446L9.68728 2.14606L5.34973 55.7848L5.34939 55.7895C5.30501 56.412 5.13234 56.8262 4.88447 57.0831C4.64473 57.3316 4.27154 57.4983 3.67935 57.4983H1.21484H0.714844V57.9983V72.8156ZM159.977 17.5037H160.477V17.0037V2.18636V1.68636H159.977H143.12C140.547 1.68636 138.589 2.24062 137.282 3.54951C135.976 4.85817 135.423 6.82017 135.423 9.39746V46.342C135.423 49.9393 134.301 52.6381 132.423 54.4393C130.541 56.2438 127.842 57.2019 124.587 57.2019C121.332 57.2019 118.633 56.2438 116.75 54.4393C114.872 52.6381 113.75 49.9393 113.75 46.342V9.39746C113.75 6.82017 113.197 4.85817 111.891 3.54951C110.585 2.24062 108.626 1.68636 106.054 1.68636H89.1963H88.6963V2.18636V17.0037V17.5037H89.1963H93.4352C94.031 17.5037 94.4314 17.6725 94.6832 17.9249C94.9352 18.1773 95.104 18.5792 95.104 19.1769V46.8359C95.104 54.9122 98.0103 61.839 103.183 66.7452C108.355 71.6498 115.755 74.501 124.685 74.501C133.518 74.501 140.869 71.6489 146.015 66.7444C151.163 61.8384 154.069 54.9121 154.069 46.8359V19.1769C154.069 18.5792 154.238 18.1773 154.49 17.9249C154.742 17.6725 155.142 17.5037 155.738 17.5037H159.977ZM163.519 62.0346L163.274 62.3439L163.518 62.6538L163.911 62.3447C163.518 62.6538 163.518 62.654 163.518 62.6543L163.519 62.655L163.521 62.6573L163.527 62.665L163.549 62.6927C163.568 62.7166 163.597 62.7512 163.634 62.7958C163.708 62.885 163.818 63.0141 163.963 63.1775C164.254 63.5043 164.684 63.9683 165.253 64.5236C166.389 65.634 168.076 67.1115 170.287 68.5886C174.71 71.543 181.237 74.501 189.64 74.501C197.684 74.501 204.072 71.946 208.453 67.8593C212.834 63.773 215.18 58.1811 215.18 52.1701C215.18 46.2368 213.133 41.8395 210.059 38.4639C206.997 35.1025 202.933 32.7721 198.919 30.9224C196.964 30.0216 195.011 29.2303 193.185 28.4904L193.034 28.4292C191.158 27.6695 189.428 26.9653 187.95 26.2442C186.466 25.521 185.275 24.7987 184.458 24.0175C183.65 23.2449 183.24 22.4458 183.24 21.5477C183.24 20.1421 184.012 19.102 185.256 18.3881C186.514 17.6659 188.221 17.3061 189.936 17.3061C191.492 17.3061 193.133 17.6859 194.368 18.3568C195.615 19.0344 196.337 19.9378 196.337 20.955V24.0172V24.5172H196.837H212.61H213.11V24.0172V16.3122C213.11 10.6859 209.672 6.71782 205.127 4.18223C200.59 1.65074 194.883 0.500977 190.133 0.500977C175.956 0.500977 164.495 9.13169 164.495 22.2391C164.495 33.6123 172.731 39.4914 180.743 43.4683C182.751 44.4651 184.758 45.3486 186.628 46.1702L186.728 46.2141C188.565 47.0211 190.262 47.7665 191.718 48.5084C193.204 49.2659 194.401 50.0019 195.222 50.7676C196.039 51.5294 196.435 52.2739 196.435 53.0592C196.435 54.8528 195.646 56.0039 194.456 56.7322C193.235 57.4799 191.565 57.7946 189.838 57.7946C185.551 57.7946 181.612 55.7861 178.716 53.7376C177.273 52.717 176.102 51.6958 175.292 50.9302C174.888 50.5476 174.574 50.2295 174.363 50.008C174.257 49.8973 174.177 49.8109 174.123 49.7526C174.097 49.7235 174.077 49.7015 174.064 49.687L174.05 49.671L174.046 49.6674L174.046 49.6668L173.65 49.2164L173.278 49.6869L163.519 62.0346ZM274.077 51.9726V51.4726H273.577H257.804H257.304V51.9726V55.8251C257.304 56.4228 257.135 56.8246 256.883 57.0771C256.632 57.3294 256.231 57.4983 255.635 57.4983H245.876C245.28 57.4983 244.88 57.3294 244.628 57.0771C244.376 56.8246 244.207 56.4228 244.207 55.8251V45.1627H263.818H264.318V44.6627V29.8454V29.3454H263.818H244.207V17.5037H253.269C253.865 17.5037 254.266 17.6725 254.517 17.9249C254.769 18.1773 254.938 18.5792 254.938 19.1769V23.0294V23.5294H255.438H271.211H271.711V23.0294V9.39746C271.711 6.82017 271.158 4.85817 269.852 3.54951C268.546 2.24062 266.587 1.68636 264.015 1.68636H219.654H219.154V2.18636V17.0037V17.5037H219.654H225.561V65.6045C225.561 68.1818 226.114 70.1438 227.42 71.4524C228.726 72.7613 230.685 73.3156 233.258 73.3156H266.381C268.953 73.3156 270.912 72.7613 272.218 71.4524C273.524 70.1438 274.077 68.1818 274.077 65.6045V51.9726ZM277.977 37.0565C277.977 58.0706 293.77 74.501 315.346 74.501C336.922 74.501 352.715 58.0706 352.715 37.0565C352.715 16.5247 336.91 0.500977 315.346 0.500977C293.782 0.500977 277.977 16.5247 277.977 37.0565ZM297.313 37.0565C297.313 26.0465 305.394 17.8 315.346 17.8C325.298 17.8 333.379 26.0465 333.379 37.0565C333.379 48.582 325.278 57.2019 315.346 57.2019C305.414 57.2019 297.313 48.582 297.313 37.0565Z" stroke="#C62F2D"/>
</svg>
