<svg width="239" height="469" viewBox="0 0 239 469" fill="none" xmlns="http://www.w3.org/2000/svg">
<path d="M200.685 466.999H37.7658C20.905 466.999 7.19296 453.293 7.19296 436.439V32.56C7.19296 15.7063 20.905 2 37.7658 2H200.584C217.445 2 231.157 15.7063 231.157 32.56V436.439C231.258 453.394 217.546 466.999 200.685 466.999Z" stroke="#C62F2D" stroke-width="4" stroke-miterlimit="10"/>
<path d="M223.944 46.0635H14.3018V424.357H223.944V46.0635Z" stroke="#C62F2D" stroke-width="4" stroke-miterlimit="10"/>
<path d="M7.19235 73.2732C7.19235 73.2732 1.70753 73.2732 2.01224 81.8016C2.31695 90.3299 2.01224 106.168 2.01224 106.168C2.01224 106.168 2.5201 117.032 7.19235 116.017C7.19235 106.168 7.19235 73.2732 7.19235 73.2732Z" stroke="#C62F2D" stroke-width="4" stroke-miterlimit="10"/>
<path d="M7.19201 161.704C7.19201 161.704 2.0119 163.024 2.0119 173.887C2.0119 184.751 2.0119 217.951 2.0119 217.951C2.0119 217.951 2.51976 228.814 7.19201 226.987C7.19201 215.819 7.19201 161.704 7.19201 161.704Z" stroke="#C62F2D" stroke-width="4" stroke-miterlimit="10"/>
<path d="M231.257 147.998C231.257 147.998 236.437 148.911 236.437 156.628C236.437 164.344 236.437 187.797 236.437 187.797C236.437 187.797 235.929 195.513 231.257 194.193C231.257 186.375 231.257 147.998 231.257 147.998Z" stroke="#C62F2D" stroke-width="4" stroke-miterlimit="10"/>
<path d="M99.3179 20.1741H141.165" stroke="#C62F2D" stroke-width="4" stroke-miterlimit="10" stroke-linecap="round"/>
<path d="M29.24 110.448C30.344 111.584 31.864 112.192 33.432 112.192C35.608 112.192 37.512 110.896 37.512 108.672C37.512 107.424 36.824 106.512 35.72 106.128V106.096C36.456 105.664 37.208 104.912 37.208 103.6C37.208 101.376 35.224 100.368 33.544 100.368C32.232 100.368 30.84 100.656 29.576 101.712L30.648 103.712C31.432 103.088 32.296 102.768 33.016 102.768C33.864 102.768 34.36 103.264 34.36 103.968C34.36 104.576 33.88 105.12 33.032 105.12H31.912V107.344H33.288C34.216 107.344 34.632 107.792 34.632 108.464C34.632 109.296 34.104 109.744 33.128 109.744C32.168 109.744 31.272 109.168 30.696 108.608L29.24 110.448ZM42.2854 109.616C43.2294 107.856 43.5334 105.312 43.5334 103.488V102.96H45.8214V109.616H42.2854ZM38.2374 109.616V114.24H40.8134V112H47.4214V114.24H49.9014V109.616H48.6214V100.56H40.8774V103.264C40.8774 105.328 40.5894 107.584 39.4214 109.616H38.2374ZM51.6688 112H59.0608V109.6H54.4688V107.44H57.9568V105.04H54.4688V102.96H58.8368V100.56H51.6688V112ZM60.092 106.256C60.092 109.648 62.412 112.192 66.092 112.192C68.188 112.192 69.692 111.312 70.7 110.272L69.26 108.224C68.476 109.008 67.356 109.632 66.22 109.632C64.012 109.632 62.988 107.888 62.988 106.192C62.988 104.544 63.932 102.928 66.22 102.928C67.244 102.928 68.348 103.456 69.084 104.096L70.38 101.984C69.26 100.88 67.628 100.368 66.092 100.368C62.556 100.368 60.092 102.928 60.092 106.256ZM72.1219 112H76.8739C79.0979 112 80.6019 110.368 80.6019 108.064C80.6019 105.76 79.0979 104.096 76.8739 104.096H74.9219V100.56H72.1219V112ZM74.9219 109.6V106.496H76.2979C77.2739 106.496 77.7539 107.152 77.7539 108.064C77.7539 108.976 77.2739 109.6 76.3459 109.6H74.9219ZM85.6739 112H88.4899L88.8419 106.848C88.9059 105.984 88.8419 104.928 88.8419 104.928H88.8739C88.8739 104.928 89.2579 106.128 89.5139 106.848L90.7139 110.16H93.1139L94.3139 106.848C94.5699 106.128 94.9539 104.928 94.9539 104.928H94.9859C94.9859 104.928 94.9219 105.984 94.9859 106.848L95.3379 112H98.1379L97.2099 100.56H94.1699L92.5059 105.392C92.2499 106.128 91.9299 107.28 91.9299 107.28H91.8979C91.8979 107.28 91.5779 106.128 91.3219 105.392L89.6579 100.56H86.6179L85.6739 112ZM99.4823 106.208C99.4823 109.568 102.01 112.192 105.466 112.192C108.922 112.192 111.45 109.568 111.45 106.208C111.45 102.928 108.922 100.368 105.466 100.368C102.01 100.368 99.4823 102.928 99.4823 106.208ZM102.378 106.208C102.378 104.336 103.754 102.928 105.466 102.928C107.178 102.928 108.554 104.336 108.554 106.208C108.554 108.16 107.178 109.632 105.466 109.632C103.754 109.632 102.378 108.16 102.378 106.208ZM111.784 112H114.92L117.144 107.36H118.232V112H121.032V107.36H122.12L124.344 112H127.48L124.408 106.064V106.032L127.24 100.56H124.232L122.12 104.976H121.032V100.56H118.232V104.976H117.144L115.032 100.56H112.024L114.856 106.032V106.064L111.784 112ZM128.778 112H136.17V109.6H131.578V107.44H135.066V105.04H131.578V102.96H135.946V100.56H128.778V112ZM140.477 112H143.277V102.96H146.749V100.56H137.005V102.96H140.477V112ZM152.153 112H156.905C159.129 112 160.633 110.496 160.633 108.384C160.633 106.272 159.129 104.736 156.905 104.736H154.953V102.96H159.593V100.56H152.153V112ZM154.953 109.6V107.136H156.329C157.305 107.136 157.785 107.664 157.785 108.384C157.785 109.104 157.305 109.6 156.377 109.6H154.953ZM171.878 112H174.678V100.56H171.878V112ZM162.278 112H166.87C169.094 112 170.598 110.368 170.598 108.064C170.598 105.76 169.094 104.096 166.87 104.096H165.078V100.56H162.278V112ZM165.078 109.6V106.496H166.294C167.27 106.496 167.75 107.152 167.75 108.064C167.75 108.976 167.27 109.6 166.342 109.6H165.078ZM179.555 112H182.355V102.96H185.827V100.56H176.083V102.96H179.555V112ZM187.231 112H191.983C194.207 112 195.711 110.368 195.711 108.064C195.711 105.76 194.207 104.096 191.983 104.096H190.031V100.56H187.231V112ZM190.031 109.6V106.496H191.407C192.383 106.496 192.863 107.152 192.863 108.064C192.863 108.976 192.383 109.6 191.455 109.6H190.031ZM30.2 131H34.408C36.68 131 38.76 130.088 38.76 127.592C38.76 126.584 38.28 125.416 36.968 125.016V124.984C37.832 124.488 38.296 123.512 38.296 122.552C38.296 120.584 36.696 119.56 34.408 119.56H30.2V131ZM33 123.992V121.96H34.392C35.144 121.96 35.448 122.408 35.448 122.936C35.448 123.48 35.144 123.992 34.44 123.992H33ZM33 128.6V126.232H34.696C35.512 126.232 35.896 126.76 35.896 127.4C35.896 128.04 35.496 128.6 34.68 128.6H33ZM39.202 131H42.082L42.77 128.6H46.338L47.042 131H49.922L46.034 119.56H43.09L39.202 131ZM43.426 126.36L44.082 124.136C44.29 123.416 44.546 122.168 44.546 122.168H44.578C44.578 122.168 44.834 123.416 45.042 124.136L45.682 126.36H43.426ZM51.075 131H65.235V119.56H62.435V128.616H59.555V119.56H56.755V128.616H53.875V119.56H51.075V131ZM74.1175 131H76.9175V121.96H80.3895V119.56H70.6455V121.96H74.1175V131ZM81.7938 131H89.1858V128.6H84.5938V126.44H88.0818V124.04H84.5938V121.96H88.9618V119.56H81.7938V131ZM91.0125 131H93.8125V126.36H94.9645L97.3805 131H100.517L97.2525 125.064V125.032L100.341 119.56H97.3325L94.9645 123.976H93.8125V119.56H91.0125V131ZM100.858 125.256C100.858 128.648 103.178 131.192 106.858 131.192C108.954 131.192 110.458 130.312 111.466 129.272L110.026 127.224C109.242 128.008 108.122 128.632 106.986 128.632C104.778 128.632 103.754 126.888 103.754 125.192C103.754 123.544 104.698 121.928 106.986 121.928C108.01 121.928 109.114 122.456 109.85 123.096L111.146 120.984C110.026 119.88 108.394 119.368 106.858 119.368C103.322 119.368 100.858 121.928 100.858 125.256ZM115.368 131H118.168V121.96H121.64V119.56H111.896V121.96H115.368V131Z" fill="#C62F2D"/>
</svg>
